<svg width="27" height="20" viewBox="0 0 27 20" fill="none"
    xmlns="http://www.w3.org/2000/svg">
    <path d="M1.40892 0.438433C1.8549 0.153425 2.36837 0.00220144 2.89271 -0.000305176H24.107C24.6313 0.00219478 25.1448 0.153441 25.5908 0.438433L14.035 8.42842C13.7108 8.65341 13.2889 8.65341 12.9647 8.42842L1.40892 0.438433ZM15.1018 10.0921C14.1303 10.7659 12.8634 10.7659 11.8921 10.0921L0.180802 1.99254C0.0638819 2.31504 0.00361543 2.65629 0 3.00001V16.9998C0 18.656 1.29577 19.9997 2.89286 19.9997H24.1071C25.7042 19.9997 27 18.656 27 16.9998V3.00001C26.9964 2.65626 26.9361 2.31501 26.8204 1.99254L15.1018 10.0921Z" fill="black"/>
</svg>
