<svg width="24" height="24" viewBox="0 0 24 24" fill="none"
    xmlns="http://www.w3.org/2000/svg">
    <path d="M11.9983 22.3253C13.2731 22.3253 14.6595 19.8695 15.2857 16.1859H8.71094C9.33718 19.8751 10.7235 22.3253 11.9983 22.3253Z" fill="black"/>
    <path d="M11.9983 1.67468C10.7235 1.67468 9.33716 4.13046 8.71094 7.81413H15.2857C14.6595 4.12488 13.2731 1.67468 11.9983 1.67468Z" fill="black"/>
    <path d="M0 12.0001C0.0011337 12.8444 0.0913059 13.6862 0.269042 14.5117H6.81704C6.74108 13.6745 6.69756 12.8373 6.69756 12.0001C6.69756 11.1629 6.74108 10.3257 6.81704 9.48849H0.269042C0.0913126 10.3139 0.00113859 11.1557 0 12.0001Z" fill="black"/>
    <path d="M8.37109 12.0001C8.37109 12.8752 8.41801 13.7113 8.49502 14.5117H15.5029C15.5799 13.7113 15.6268 12.8752 15.6268 12.0001C15.6268 11.125 15.5799 10.2889 15.5029 9.48849H8.49502C8.41801 10.2889 8.37109 11.125 8.37109 12.0001Z" fill="black"/>
    <path d="M23.2335 16.1859H16.9824C16.3127 20.4422 14.616 23.9997 12.0039 23.9997C14.4485 23.9949 16.8333 23.2443 18.8399 21.848C20.8466 20.4517 22.3793 18.4764 23.2335 16.1859Z" fill="black"/>
    <path d="M0.769531 7.81384H7.0206C7.69036 3.55865 9.38708 0 11.9991 0C9.55452 0.00479636 7.16974 0.755397 5.16314 2.15169C3.15648 3.54797 1.6237 5.52325 0.769531 7.81382V7.81384Z" fill="black"/>
    <path d="M7.0206 16.1859H0.769531C1.62365 18.4764 3.15632 20.4518 5.16292 21.848C7.16958 23.2443 9.55452 23.9949 11.9991 23.9997C9.38708 23.9997 7.68925 20.4422 7.0206 16.1859Z" fill="black"/>
    <path d="M12 0C14.6121 0 16.3099 3.55865 16.9785 7.81384H23.2296C22.3755 5.52327 20.8428 3.54793 18.8362 2.15171C16.8296 0.75542 14.4446 0.00479993 12 0Z" fill="black"/>
    <path d="M17.1836 9.48849C17.2595 10.3212 17.3031 11.1629 17.3031 12.0001C17.3031 12.8373 17.2596 13.6745 17.1836 14.5117H23.7316C24.0903 12.8565 24.0903 11.1437 23.7316 9.48849H17.1836Z" fill="black"/>
</svg>
