<svg width="24" height="24" viewBox="0 0 24 24" fill="none"
    xmlns="http://www.w3.org/2000/svg">
    <path d="M23.7537 20.1673C22.3941 23.4272 19.2068 23.9987 18.1652 23.9987C17.8593 23.9987 13.096 24.2513 6.24845 17.7544C0.737829 12.526 0.0645004 6.90347 0.00583418 5.8352C-0.0512832 4.79467 0.246632 2.18427 3.83647 0.244893C4.28127 0.00456502 5.16311 -0.101906 5.39088 0.125938C5.49192 0.227006 8.50508 5.18633 8.58419 5.35059C8.66336 5.51461 8.70311 5.67628 8.70311 5.83474C8.70311 6.0612 8.54174 6.34451 8.21883 6.68426C7.89616 7.02411 7.54523 7.33565 7.16579 7.61861C6.78637 7.90184 6.43542 8.20192 6.11251 8.51911C5.78985 8.83603 5.62849 9.09685 5.62849 9.30064C5.65037 9.82959 6.08369 11.7241 9.38469 14.6253C12.6862 17.5274 14.2766 18.3449 14.4295 18.4016C14.5826 18.4581 14.7098 18.4862 14.8116 18.4862C15.0156 18.4862 15.2761 18.3251 15.5932 18.0023C15.9101 17.6793 16.9759 16.2181 17.3156 15.8951C17.6554 15.5726 17.9385 15.4112 18.1652 15.4112C18.3236 15.4112 18.4849 15.4507 18.6489 15.5298C18.8132 15.609 23.7778 18.5148 23.8727 18.612C24.1303 18.8761 23.9485 19.7003 23.7538 20.1671" fill="black"/>
</svg>
